<?xml version="1.0" encoding="UTF-8" standalone="no"?>
<!DOCTYPE svg PUBLIC "-//W3C//DTD SVG 1.1//EN" "http://www.w3.org/Graphics/SVG/1.1/DTD/svg11.dtd">
<svg width="100%" height="100%" viewBox="0 0 18 18" version="1.1" xmlns="http://www.w3.org/2000/svg" xmlns:xlink="http://www.w3.org/1999/xlink" xml:space="preserve" xmlns:serif="http://www.serif.com/" style="fill-rule:evenodd;clip-rule:evenodd;stroke-linejoin:round;stroke-miterlimit:2;">
    <rect x="0" y="0" width="18" height="18" style="fill:none;fill-rule:nonzero;"/>
    <circle cx="9" cy="3" r="1.5" style="fill:rgb(213,213,213);"/>
    <path d="M14.25,9.75L14.25,8.25C13.095,8.265 11.933,7.688 11.198,6.877L10.23,5.805C10.103,5.662 9.945,5.55 9.773,5.468C9.765,5.468 9.765,5.46 9.758,5.46L9.75,5.46C9.488,5.31 9.188,5.235 8.858,5.265C8.07,5.333 7.5,6.03 7.5,6.818L7.5,11.25C7.5,12.075 8.175,12.75 9,12.75L12.75,12.75L12.75,16.5L14.25,16.5L14.25,12.375C14.25,11.55 13.575,10.875 12.75,10.875L10.5,10.875L10.5,8.288C11.468,9.09 12.938,9.743 14.25,9.75ZM9.623,13.5C9.315,14.37 8.483,15 7.5,15C6.255,15 5.25,13.995 5.25,12.75C5.25,11.768 5.88,10.942 6.75,10.628L6.75,9.075C5.04,9.42 3.75,10.935 3.75,12.75C3.75,14.82 5.43,16.5 7.5,16.5C9.315,16.5 10.83,15.21 11.175,13.5L9.623,13.5Z" style="fill:rgb(213,213,213);fill-rule:nonzero;"/>
</svg>
