<?xml version="1.0" encoding="UTF-8" standalone="no"?>
<!DOCTYPE svg PUBLIC "-//W3C//DTD SVG 1.1//EN" "http://www.w3.org/Graphics/SVG/1.1/DTD/svg11.dtd">
<svg width="100%" height="100%" viewBox="0 0 18 18" version="1.1" xmlns="http://www.w3.org/2000/svg" xmlns:xlink="http://www.w3.org/1999/xlink" xml:space="preserve" xmlns:serif="http://www.serif.com/" style="fill-rule:evenodd;clip-rule:evenodd;stroke-linejoin:round;stroke-miterlimit:2;">
    <rect x="0" y="0" width="18" height="18" style="fill:none;fill-rule:nonzero;"/>
    <path d="M11.25,13.875C9.368,13.875 7.74,12.81 6.93,11.25L11.25,11.25L11.25,9.75L6.435,9.75C6.397,9.503 6.375,9.255 6.375,9C6.375,8.745 6.397,8.498 6.435,8.25L11.25,8.25L11.25,6.75L6.93,6.75C7.74,5.19 9.375,4.125 11.25,4.125C12.458,4.125 13.567,4.568 14.423,5.303L15.75,3.975C14.558,2.903 12.975,2.25 11.25,2.25C8.31,2.25 5.82,4.133 4.89,6.75L2.25,6.75L2.25,8.25L4.545,8.25C4.515,8.498 4.5,8.745 4.5,9C4.5,9.255 4.515,9.503 4.545,9.75L2.25,9.75L2.25,11.25L4.89,11.25C5.82,13.868 8.31,15.75 11.25,15.75C12.982,15.75 14.558,15.098 15.75,14.025L14.415,12.698C13.567,13.433 12.465,13.875 11.25,13.875Z" style="fill:rgb(213,213,213);fill-rule:nonzero;"/>
</svg>
